<svg xmlns="http://www.w3.org/2000/svg" xmlns:xlink="http://www.w3.org/1999/xlink" width="24" height="24" viewBox="0 0 24 24"><defs><path id="a" d="M-240.34-17.17c-18.22 0-33 15.15-33 33.84 0 14.95 9.45 27.63 22.57 32.11 1.65.31 2.25-.74 2.25-1.63 0-.8-.03-2.93-.04-5.75-9.18 2.04-11.12-4.54-11.12-4.54-1.5-3.91-3.66-4.95-3.66-4.95-3-2.1.23-2.06.23-2.06 3.31.24 5.05 3.49 5.05 3.49 2.94 5.17 7.72 3.68 9.6 2.81.3-2.19 1.15-3.68 2.09-4.52-7.33-.85-15.03-3.76-15.03-16.72 0-3.69 1.29-6.71 3.4-9.08-.34-.86-1.47-4.3.32-8.95 0 0 2.77-.91 9.08 3.47 2.63-.75 5.46-1.13 8.26-1.14 2.8.01 5.63.39 8.26 1.14 6.3-4.38 9.07-3.47 9.07-3.47 1.8 4.66.67 8.1.33 8.95 2.11 2.37 3.39 5.39 3.39 9.08 0 13-7.72 15.86-15.07 16.7 1.19 1.04 2.24 3.11 2.24 6.27 0 4.52-.04 8.17-.04 9.28 0 .91.59 1.96 2.27 1.63 13.1-4.48 22.55-17.16 22.55-32.1.01-18.71-14.77-33.86-33-33.86"/></defs><clipPath id="b"><use xlink:href="#a" overflow="visible"/></clipPath><g clip-path="url(#b)"><defs><path id="c" d="M-1121.33-2471.17h1680v3369h-1680z"/></defs><clipPath id="d"><use xlink:href="#c" overflow="visible"/></clipPath><path clip-path="url(#d)" d="M-278.33-22.17h76v76h-76z"/></g><path d="M12 2C6.48 2 2 6.48 2 12s4.48 10 10 10 10-4.48 10-10S17.52 2 12 2zm0 18c-4.41 0-8-3.59-8-8s3.59-8 8-8 8 3.59 8 8-3.59 8-8 8z"/><path d="M13 7h-2v4H7v2h4v4h2v-4h4v-2h-4z"/><path fill="none" d="M0 0h24v24H0z"/></svg>